<svg width="122" height="40" viewBox="0 0 122 40" fill="none" xmlns="http://www.w3.org/2000/svg">
<rect width="40" height="40" rx="20" fill="#F8DE3F"/>
<path fill-rule="evenodd" clip-rule="evenodd" d="M11.2502 12.9167V25.5471H14.8262C15.1484 25.5471 15.4096 25.8083 15.4096 26.1304V29.5917L19.2833 25.718C19.3927 25.6086 19.5411 25.5471 19.6958 25.5471H28.7502V12.9167H11.2502ZM10.0835 12.7222C10.0835 12.1853 10.5188 11.75 11.0557 11.75H28.9446C29.4816 11.75 29.9168 12.1853 29.9168 12.7222V25.7415C29.9168 26.2785 29.4816 26.7138 28.9446 26.7138H19.9374L15.2387 31.4125C15.0719 31.5793 14.821 31.6292 14.603 31.5389C14.385 31.4486 14.2429 31.2359 14.2429 31V26.7138H11.0557C10.5188 26.7138 10.0835 26.2785 10.0835 25.7415V12.7222Z" fill="#0F0F0F"/>
<path fill-rule="evenodd" clip-rule="evenodd" d="M27.826 14.2805C28.0394 14.5219 28.0167 14.8905 27.7753 15.1039L20.2963 21.715C20.0736 21.9118 19.7386 21.9098 19.5183 21.7103L12.2196 15.0992C11.9808 14.8829 11.9625 14.514 12.1788 14.2752C12.3951 14.0365 12.764 14.0182 13.0028 14.2345L19.9147 20.4952L27.0026 14.2298C27.244 14.0164 27.6126 14.0391 27.826 14.2805Z" fill="#0F0F0F"/>
<path d="M70.74 14.54L66.08 27.38L63.44 28.4L60.4 19.54L57.72 27.38L55.1 28.4L49.88 14.38L47.94 13.3L48.46 12.3H54.34V13.12L52.9 14.2L57 25.44L59.72 17.54L58.62 14.34L56.78 13.28L57.28 12.28H63.62V13.1L61.74 14.42L65.38 25.42L69.26 14.6L65.86 13.28L66.36 12.28H72.6V13.12L70.74 14.54ZM76.8939 27.98C76.2806 28.1267 75.5272 28.2 74.6339 28.2C73.7139 28.2 72.8872 27.9733 72.1539 27.52C71.4339 27.0533 70.8672 26.4267 70.4539 25.64C70.0406 24.84 69.8339 23.96 69.8339 23C69.8339 21.96 70.1539 20.9933 70.7939 20.1C71.4472 19.1933 72.2606 18.4733 73.2339 17.94C74.2072 17.3933 75.1472 17.12 76.0539 17.12C77.3739 17.12 78.4006 17.6333 79.1339 18.66C79.8672 19.6867 80.2272 21.0667 80.2139 22.8H72.8739C72.9806 23.8133 73.2806 24.6333 73.7739 25.26C74.2806 25.8867 74.9606 26.2 75.8139 26.2C76.7072 26.2 77.9872 25.6067 79.6539 24.42L80.2339 25.34L76.8939 27.98ZM74.9139 19.04C73.5939 19.04 72.9006 19.9533 72.8339 21.78H77.1739C77.0672 21.1267 76.9472 20.62 76.8139 20.26C76.6939 19.8867 76.4806 19.5933 76.1739 19.38C75.8806 19.1533 75.4606 19.04 74.9139 19.04ZM99.3217 28H95.2217V21.3C95.2217 20.6333 95.1151 20.1733 94.9017 19.92C94.7017 19.6533 94.3417 19.52 93.8217 19.52C93.4617 19.52 93.0951 19.5867 92.7217 19.72C92.3617 19.8533 91.9484 20.1067 91.4817 20.48V26.36L93.2217 27L92.7217 28H88.6817V21.3C88.6817 20.6333 88.5751 20.1733 88.3617 19.92C88.1617 19.6533 87.8017 19.52 87.2817 19.52C86.9084 19.52 86.5351 19.5867 86.1617 19.72C85.8017 19.8533 85.3884 20.1067 84.9217 20.48V26.36L86.6817 27L86.1817 28H80.3417V27.18L82.1217 25.74V20.54L80.3417 19.46V18.64L84.0617 16.94L84.7617 19.4L87.3217 17.28C87.5751 17.1733 87.9417 17.12 88.4217 17.12C89.2084 17.12 89.8617 17.32 90.3817 17.72C90.9017 18.1067 91.2417 18.6467 91.4017 19.34L93.8817 17.28C94.1351 17.1733 94.5017 17.12 94.9817 17.12C95.9151 17.12 96.6551 17.4 97.2017 17.96C97.7617 18.5067 98.0417 19.2533 98.0417 20.2V26.34L99.8217 27L99.3217 28ZM109.921 28H105.821V26.26L103.561 28.04C103.294 28.1467 102.961 28.2 102.561 28.2C101.361 28.2 100.487 27.9067 99.9406 27.32C99.4073 26.72 99.1406 26 99.1406 25.16C99.1406 24.6667 99.3073 24.1867 99.6406 23.72C99.9873 23.24 100.474 22.7867 101.101 22.36H105.821V21.44C105.821 19.92 105.007 19.16 103.381 19.16C102.527 19.16 101.434 19.6067 100.101 20.5L99.5006 19.6L102.341 17.34C102.901 17.1933 103.601 17.12 104.441 17.12C105.761 17.12 106.787 17.4333 107.521 18.06C108.254 18.6867 108.621 19.6 108.621 20.8V26.3L110.421 27L109.921 28ZM103.341 26.1C104.087 26.1 104.914 25.76 105.821 25.08V23.38H102.401C102.134 23.7 102.001 24.0867 102.001 24.54C102.001 24.98 102.121 25.3533 102.361 25.66C102.614 25.9533 102.941 26.1 103.341 26.1ZM115.494 28H109.614V27.18L111.394 25.74V20.38L109.614 19.16V18.34L113.234 16.94H114.194V26.34L115.994 27L115.494 28ZM112.734 10.92C113.201 10.92 113.587 11.0867 113.894 11.42C114.201 11.74 114.354 12.14 114.354 12.62C114.354 12.9533 114.241 13.2733 114.014 13.58C113.801 13.8733 113.527 14.1067 113.194 14.28C112.874 14.4533 112.561 14.54 112.254 14.54C111.787 14.54 111.401 14.38 111.094 14.06C110.787 13.74 110.634 13.34 110.634 12.86C110.634 12.5133 110.741 12.1933 110.954 11.9C111.181 11.6067 111.454 11.3733 111.774 11.2C112.107 11.0133 112.427 10.92 112.734 10.92ZM120.843 28H114.963V27.18L116.743 25.74V13.98L114.963 12.76V11.94L118.583 10.54H119.543V26.34L121.343 27L120.843 28Z" fill="#0F0F0F"/>
</svg>
